<svg width="117" height="43" viewBox="0 0 117 43" fill="none" xmlns="http://www.w3.org/2000/svg">
<path fill-rule="evenodd" clip-rule="evenodd" d="M9.3772 38.6092L8.34039 35.3295L8.33424 35.3303L7.29666 38.6092H9.3772ZM16.7194 38.9211C16.7194 39.5881 16.5427 40.0667 16.1902 40.3625C15.9813 40.5357 15.6964 40.6455 15.3346 40.6904C14.9775 40.7345 14.5451 40.757 14.0359 40.757C13.665 40.757 13.3463 40.7385 13.0828 40.7009C12.8041 40.664 12.5629 40.5838 12.3571 40.4628C12.1359 40.3321 11.9715 40.1244 11.8617 39.8358C11.7534 39.5584 11.6981 39.241 11.6981 38.8866V34.4172H12.8632V38.9868C12.8632 39.2482 12.9415 39.4318 13.0967 39.5416C13.2733 39.6643 13.6181 39.726 14.1319 39.726C14.2287 39.726 14.2986 39.7308 14.3424 39.7412C14.6081 39.7308 14.7855 39.7204 14.8754 39.706C15.0873 39.6739 15.2502 39.6065 15.3623 39.5063C15.4952 39.3877 15.5627 39.1392 15.5627 38.76V34.4172H16.7194V38.9211ZM23.3596 40.7049H21.4234L18.8675 35.4482H18.8206L18.8867 38.0561L18.9174 40.7049H17.7523V34.4172H19.6724L22.259 39.6739H22.2905L22.1945 34.4172H23.3596V40.7049ZM28.1389 38.4417V36.5449C28.1389 36.1352 28.0721 35.8506 27.9392 35.6911C27.8102 35.5371 27.6021 35.4441 27.3118 35.4137C27.2096 35.4017 27.0199 35.396 26.7396 35.396C26.0115 35.396 25.5883 35.5331 25.4708 35.8073C25.3933 35.9917 25.3426 36.2723 25.318 36.6475C25.3288 36.6956 25.3341 36.7597 25.3341 36.8399V38.3319C25.3341 38.857 25.3902 39.2113 25.5031 39.3973C25.5899 39.5416 25.725 39.6322 25.9071 39.6699C26.1306 39.7164 26.4001 39.7396 26.7173 39.7412C27.0399 39.7412 27.3071 39.7116 27.5191 39.6546C27.6996 39.6065 27.8394 39.5216 27.9392 39.3973C28.0721 39.1921 28.1389 38.8738 28.1389 38.4417ZM29.3032 38.6261C29.3032 39.0045 29.2702 39.2979 29.2018 39.5063C29.1296 39.7236 29.0313 39.9216 28.91 40.1012C28.7748 40.3 28.5774 40.4483 28.3209 40.5461C27.9538 40.6872 27.3701 40.757 26.5714 40.757C26.1137 40.757 25.7266 40.7225 25.4132 40.6528C25.1099 40.5854 24.8549 40.4387 24.6429 40.2102C24.3388 39.8807 24.1867 39.2915 24.1867 38.4417V36.7212C24.1867 35.9204 24.3019 35.3471 24.5331 35.0024C24.7635 34.6585 25.2005 34.4565 25.841 34.4003C26.0998 34.3763 26.394 34.3651 26.725 34.3651C27.4462 34.3651 27.9968 34.4404 28.3785 34.5895C28.6235 34.6873 28.8055 34.83 28.9246 35.02C29.1773 35.3055 29.3032 35.8306 29.3032 36.5962V38.6261ZM40.0054 40.7049H38.8503L38.9463 35.3976H38.9133L37.0117 40.7049H35.9734L34.0618 35.4321H34.0295L34.0956 37.7691L34.1263 40.7049H32.9612V34.4172H34.8336L36.4649 39.0862H36.4941L38.1115 34.4172H40.0054V40.7049ZM45.1373 40.7049H40.9831V34.4172H45.1219V35.4482H42.1397V37.0243H44.9691V38.0056H42.1397V39.6739H45.1373V40.7049ZM51.6346 40.7049H49.6985L47.1425 35.4482H47.0964L47.1617 38.0561L47.1924 40.7049H46.0274V34.4172H47.9474L50.5341 39.6739H50.5663L50.4695 34.4172H51.6346V40.7049ZM53.8288 40.7049H52.6637V34.4164H53.8288V40.7049ZM60.4767 40.7049H58.5413L55.9854 35.4482H55.9385L56.0038 38.0561L56.0345 40.7049H54.8702V34.4172H56.7903L59.3769 39.6739H59.4092L59.3124 34.4172H60.4767V40.7049ZM62.6717 40.7049H61.5066V34.4164H62.6717V40.7049ZM69.3196 40.7049H67.3834L64.8282 35.4482H64.7814L64.8475 38.0561L64.8782 40.7049H63.7131V34.4172H65.6324L68.219 39.6739H68.2513L68.1553 34.4172H69.3196V40.7049ZM75.7286 40.7049H74.2755L72.0598 38.0208H71.5122V40.7049H70.3479V34.4172H71.5122V36.989H72.0598L74.0682 34.4172H75.4805L73.0452 37.4941L75.7286 40.7049ZM90.5819 40.7049H88.6465L86.0914 35.4482H86.0437L86.109 38.0561L86.1397 40.7049H84.9754V34.4172H86.8955L89.4821 39.6739H89.5144L89.4176 34.4172H90.5819V40.7049ZM94.9857 38.6092L93.9489 35.3295L93.942 35.3303L92.9051 38.6092H94.9857ZM96.8235 40.7049H95.6439L95.2583 39.5216H92.6494L92.2623 40.7049H91.065L93.0741 34.4172H94.7691L96.8235 40.7049ZM104.352 40.7049H103.196L103.292 35.3976H103.259L101.359 40.7049H100.319L98.4072 35.4321H98.3757L98.441 37.7691L98.4717 40.7049H97.3066V34.4172H99.1798L100.811 39.0862H100.84L102.457 34.4172H104.352V40.7049ZM108.778 38.6092L107.742 35.3295L107.735 35.3303L106.697 38.6092H108.778ZM110.615 40.7049H109.437L109.051 39.5216H106.441L106.055 40.7049H104.858L106.866 34.4172H108.561L110.615 40.7049ZM112.264 40.7049H111.099V34.4164H112.264V40.7049ZM79.1447 40.7401C78.7 41.1057 78.4781 41.5082 78.4781 41.9467C78.4781 42.3411 78.601 42.6201 78.846 42.7805C79.0702 42.9272 79.4389 43.0001 79.9504 43.0001H80.2337V41.9796H79.8021C79.5425 41.9796 79.4128 41.8369 79.4128 41.5515C79.4128 41.2885 79.5571 40.9959 79.8451 40.6728C80.1523 40.6215 80.3996 40.5173 80.5855 40.3625C80.938 40.0667 81.1147 39.5881 81.1147 38.9211V34.4172H79.9573V38.76C79.9573 39.1392 79.8904 39.3877 79.7584 39.5063C79.6455 39.6065 79.4826 39.6739 79.2714 39.706C79.1816 39.7204 79.0034 39.7308 78.7384 39.7412C78.6939 39.7308 78.624 39.726 78.528 39.726C78.0134 39.726 77.6686 39.6643 77.4912 39.5416C77.3361 39.4318 77.2585 39.2482 77.2585 38.9868V34.4172H76.0934V38.8866C76.0934 39.241 76.1487 39.5584 76.257 39.8358C76.3676 40.1244 76.5312 40.3321 76.7531 40.4628C76.959 40.5838 77.2001 40.664 77.4781 40.7009C77.7423 40.7385 78.0611 40.757 78.4312 40.757C78.6885 40.757 78.9266 40.7514 79.1447 40.7401ZM6.43188 1.71522C6.8781 0.382805 8.27587 -0.321884 9.55307 0.143097C10.831 0.607281 11.5054 2.06636 11.0591 3.39959L9.18827 8.9898L19.1455 0.734749C20.2069 -0.144711 21.7506 0.0404816 22.5939 1.14682C23.4364 2.25316 23.2605 3.86457 22.1999 4.74403L11.9938 13.2059L15.3492 17.7628C22.2007 12.183 28.9975 6.5767 35.8129 0.952007C37.5885 -0.514294 40.4079 1.58294 39.6537 3.81887L36.2276 13.9699C41.5806 9.61112 47.0235 5.33728 52.3373 0.952007C54.113 -0.514294 56.9316 1.58294 56.1782 3.81887L52.7521 13.9699C58.0475 9.65762 63.2915 5.3004 68.5608 0.952007C70.3364 -0.514294 73.1558 1.58294 72.4016 3.81887L68.9763 13.9699C74.2103 9.70652 79.2522 5.26914 84.4839 0.952007C86.2588 -0.514294 89.0781 1.58294 88.3247 3.81887L84.8986 13.9699C90.2517 9.61112 95.6945 5.33728 101.008 0.952007C102.783 -0.514294 105.603 1.58294 104.849 3.81887L101.423 13.9699L113.043 4.50592C114.109 3.63769 115.65 3.8357 116.481 4.94846C117.313 6.06041 117.124 7.66781 116.058 8.53524L97.8335 23.3778C96.0517 24.8297 93.263 22.7317 94.0118 20.511L97.3965 10.4826C92.1202 14.8374 86.6451 19.0326 81.3097 23.3778C79.528 24.8297 76.7393 22.7317 77.4881 20.511L80.7406 10.873L65.3866 23.3778C63.6048 24.8297 60.8162 22.7317 61.565 20.511L64.9319 10.5355L49.1632 23.3778C47.3814 24.8297 44.5927 22.7317 45.3415 20.511L48.7262 10.4826C43.4499 14.8374 37.9748 19.0326 32.6387 23.3778C30.8577 24.8297 28.0682 22.7317 28.8171 20.511L32.1832 10.5371L16.4168 23.3778C15.4437 24.1707 13.7211 23.9478 12.9699 22.9265L7.1638 15.041L4.7653 22.205C4.31986 23.5382 2.92054 24.2429 1.64334 23.7779C0.366144 23.3137 -0.308169 21.8546 0.137277 20.5214L6.43188 1.71522ZM5.63776 40.7049H5.45728H4.18545L1.96975 38.0208H1.42216V40.7049H0.257086V34.4172H1.42216V36.989H1.96975L3.97809 34.4172H5.39046L2.9551 37.4941L5.5072 40.5485L7.46562 34.4172H9.15985L11.2158 40.7049H10.0354L9.64984 39.5216H7.04091L6.65384 40.7049H5.63776Z" fill="#0F1538"/>
</svg>
